{"title":"The Colony DVDRip.mp4","uid":8722030,"size":575534733,"categoryP":"video","categoryS":"movies","magnet":"?xt=urn:btih:64ae23f31df28fe5f490ab4287cdc8fc205bf316&amp;dn=The+Colony+DVDRip.mp4&amp;tr=udp%3A%2F%2Ftracker.openbittorrent.com%3A80&amp;tr=udp%3A%2F%2Fopen.demonii.com%3A1337&amp;tr=udp%3A%2F%2Ftracker.coppersurfer.tk%3A6969&amp;tr=udp%3A%2F%2Fexodus.desync.com%3A6969","seeders":1,"leechers":0,"uploader":"globeplus","files":-1,"time":1374436448,"description":"The Colony DVDRip.mp4\n\nPlot\n\nIn 2045, the Earth faces extreme cold conditions which force survivors to live in underground bunkers. Their challenges are controlling disease and producing sufficient food. Two soldiers, Briggs (Laurence Fishburne) and Mason (Bill Paxton) are the leaders of one such bunker, Colony 7. Briggs, Sam (Kevin Zegers) and Graydon (Atticus Dean Mitchell) travel to nearby Colony 5 after receiving a distress signal, only to find it besieged by cannibals. Upon returning to Colony 7, Briggs must confront Mason who in the meantime conducts a hostile take-over of the bunker.\n\n\nGeneral INFO :\n\nFormat                                   : MPEG-4\nCodec ID                                 : M4V \nFile size                                : 549 MiB\nDuration                                 : 1h 34mn\nOverall bit rate mode                    : Variable\nOverall bit rate                         : 814 Kbps\n\n\nVideo\n\nID                                       : 1\nFormat                                   : AVC\nFormat/Info                              : Advanced Video Codec\nFormat profile                           : &lt;a class=&quot;__cf_email__&quot; href=&quot;/cdn-cgi/l/email-protection&quot; data-cfemail=&quot;7139181619313d425f40&quot;&gt;[email&amp;#160;protected]&lt;/a&gt;&lt;script cf-hash='f9e31' type=&quot;text/javascript&quot;&gt;\n/* &lt;![CDATA[ */!function(){try{var t=&quot;currentScript&quot;in document?document.currentScript:function(){for(var t=document.getElementsByTagName(&quot;script&quot;),e=t.length;e--;)if(t[e].getAttribute(&quot;cf-hash&quot;))return t[e]}();if(t&amp;&amp;t.previousSibling){var e,r,n,i,c=t.previousSibling,a=c.getAttribute(&quot;data-cfemail&quot;);if(a){for(e=&quot;&quot;,r=parseInt(a.substr(0,2),16),n=2;a.length-n;n+=2)i=parseInt(a.substr(n,2),16)^r,e+=String.fromCharCode(i);e=document.createTextNode(e),c.parentNode.replaceChild(e,c)}}}catch(u){}}();/* ]]&gt; */&lt;/script&gt;\nFormat settings, CABAC                   : Yes\nFormat settings, ReFrames                : 2 frames\nCodec ID                                 : avc1\nCodec ID/Info                            : Advanced Video Coding\nDuration                                 : 1h 34mn\nBit rate mode                            : Variable\nBit rate                                 : 764 Kbps\nMaximum bit rate                         : 3 315 Kbps\nWidth                                    : 896 pixels\nHeight                                   : 502 pixels\nDisplay aspect ratio                     : 16:9\nFrame rate mode                          : Constant\nFrame rate                               : 29.970 fps\nColor space                              : YUV\nChroma subsampling                       : 4:2:0\nBit depth                                : 8 bits\nScan type                                : Progressive\nBits/(Pixel*Frame)                       : 0.057\nStream size                              : 515 MiB (94%)\nWriting library                          : x264 core 120 r2151 a3f4407\n\n\nAudio\n\nID                                       : 2\nFormat                                   : AAC\nFormat/Info                              : Advanced Audio Codec\nFormat profile                           : HE-AAC / LC\nCodec ID                                 : 40\nDuration                                 : 1h 34mn\nBit rate mode                            : Variable\nBit rate                                 : 48.0 Kbps\nMaximum bit rate                         : 75.8 Kbps\nChannel(s)                               : 2 channels\nChannel positions                        : Front: L R\nSampling rate                            : 48.0 KHz / 24.0 KHz\nCompression mode                         : Lossy\nStream size                              : 32.3 MiB (6%)\nLanguage                                 : English\n\n\n\n\n* enjoy ...\n","torrent":{"xt":"urn:btih:64ae23f31df28fe5f490ab4287cdc8fc205bf316","amp;dn":"The+Colony+DVDRip.mp4","amp;tr":["udp%3A%2F%2Ftracker.openbittorrent.com%3A80","udp%3A%2F%2Fopen.demonii.com%3A1337","udp%3A%2F%2Ftracker.coppersurfer.tk%3A6969","udp%3A%2F%2Fexodus.desync.com%3A6969"],"infoHash":"64ae23f31df28fe5f490ab4287cdc8fc205bf316","infoHashBuffer":{"type":"Buffer","data":[100,174,35,243,29,242,143,229,244,144,171,66,135,205,200,252,32,91,243,22]},"announce":[],"urlList":[]}}